<svg width="930" height="706" viewBox="0 0 930 706" fill="none" xmlns="http://www.w3.org/2000/svg">
<path opacity="0.1" d="M460.876 705.418C656.333 705.418 814.782 693.962 814.782 679.83C814.782 665.698 656.333 654.242 460.876 654.242C265.419 654.242 106.97 665.698 106.97 679.83C106.97 693.962 265.419 705.418 460.876 705.418Z" fill="#6C63FF"/>
<path opacity="0.4" d="M95.5755 289.852V304.413H92.2386C93.5571 299.57 94.6803 294.711 95.5755 289.852Z" fill="white"/>
<path opacity="0.4" d="M143.48 304.413H182.171V282.3H143.48V304.413Z" fill="white"/>
<path opacity="0.4" d="M95.5754 325.607V347.711H74.4146C78.2886 340.527 81.7929 333.149 84.9136 325.607H95.5754Z" fill="white"/>
<path opacity="0.4" d="M143.48 347.711H182.171V325.598H143.48V347.711Z" fill="white"/>
<path opacity="0.4" d="M61.889 368.897H95.5754V391.01H56.8837V376.335L61.889 368.897Z" fill="white"/>
<path opacity="0.4" d="M143.48 391.009H182.171V368.896H143.48V391.009Z" fill="white"/>
<path opacity="0.4" d="M95.5754 412.203H56.8837V434.316H95.5754V412.203Z" fill="white"/>
<path opacity="0.4" d="M143.48 434.308H182.171V412.195H143.48V434.308Z" fill="white"/>
<path opacity="0.4" d="M95.5754 455.501H56.8837V477.614H95.5754V455.501Z" fill="white"/>
<path opacity="0.4" d="M143.48 477.606H182.171V455.493H143.48V477.606Z" fill="white"/>
<path opacity="0.4" d="M95.5754 498.799H56.8837V520.912H95.5754V498.799Z" fill="white"/>
<path opacity="0.4" d="M143.48 520.904H182.171V498.791H143.48V520.904Z" fill="white"/>
<path opacity="0.4" d="M95.5754 542.097H56.8837V564.21H95.5754V542.097Z" fill="white"/>
<path opacity="0.4" d="M143.48 564.202H182.171V542.089H143.48V564.202Z" fill="white"/>
<path opacity="0.4" d="M304.701 487.739H214.418V498.791H304.701V487.739Z" fill="white"/>
<path opacity="0.4" d="M304.701 504.326H214.418V515.378H304.701V504.326Z" fill="white"/>
<path opacity="0.4" d="M304.701 520.904H214.418V531.956H304.701V520.904Z" fill="white"/>
<path opacity="0.4" d="M540.538 493.273H450.254V504.326H540.538V493.273Z" fill="white"/>
<path opacity="0.4" d="M540.538 509.852H450.254V520.904H540.538V509.852Z" fill="white"/>
<path opacity="0.4" d="M540.538 526.43H450.254V537.483H540.538V526.43Z" fill="white"/>
<path opacity="0.4" d="M304.701 537.491H214.418V548.543H304.701V537.491Z" fill="white"/>
<path opacity="0.4" d="M304.701 554.07H214.418V565.122H304.701V554.07Z" fill="white"/>
<path opacity="0.4" d="M304.701 570.657H214.418V581.709H304.701V570.657Z" fill="white"/>
<path opacity="0.4" d="M362.731 373.511H337.859V405.756H362.731V373.511Z" fill="white"/>
<path opacity="0.4" d="M392.217 405.749H417.089V373.503H392.217V405.749Z" fill="white"/>
<path opacity="0.4" d="M362.731 425.095H337.859V457.341H362.731V425.095Z" fill="white"/>
<path opacity="0.4" d="M392.217 457.34H417.089V425.095H392.217V457.34Z" fill="white"/>
<path opacity="0.4" d="M362.731 476.686H337.859V508.932H362.731V476.686Z" fill="white"/>
<path opacity="0.4" d="M392.217 508.932H417.089V476.686H392.217V508.932Z" fill="white"/>
<path opacity="0.4" d="M362.731 528.278H337.859V560.524H362.731V528.278Z" fill="white"/>
<path opacity="0.4" d="M392.217 560.523H417.089V528.278H392.217V560.523Z" fill="white"/>
<path opacity="0.4" d="M587.515 200.318H554.35V242.697H587.515V200.318Z" fill="white"/>
<path opacity="0.4" d="M587.515 261.115H554.35V303.493H587.515V261.115Z" fill="white"/>
<path opacity="0.4" d="M587.515 321.919H554.35V364.298H587.515V321.919Z" fill="white"/>
<path opacity="0.4" d="M587.515 382.724H554.35V425.103H587.515V382.724Z" fill="white"/>
<path opacity="0.4" d="M587.515 443.521H554.35V485.899H587.515V443.521Z" fill="white"/>
<path opacity="0.4" d="M587.515 504.326H554.35V546.704H587.515V504.326Z" fill="white"/>
<path opacity="0.4" d="M782.365 286.915H658.917V322.839H782.365V286.915Z" fill="white"/>
<path opacity="0.4" d="M782.822 364.298H659.373V400.222H782.822V364.298Z" fill="white"/>
<path opacity="0.4" d="M783.286 441.681H659.837V477.606H783.286V441.681Z" fill="white"/>
<path opacity="0.4" d="M783.741 519.065H660.292V554.989H783.741V519.065Z" fill="white"/>
<path opacity="0.4" d="M83.6032 212.29V213.014C83.4649 212.778 83.3184 212.526 83.1719 212.29H83.6032Z" fill="white"/>
<path opacity="0.4" d="M919.138 491.051V504.35H877.711V455.762C894.265 465.634 909.371 476.597 919.138 491.051Z" fill="white"/>
<path opacity="0.4" d="M919.138 528.278V562.363C915.282 568.298 910.552 573.615 905.106 578.136C903.609 579.373 902.054 580.578 900.475 581.701H877.687V528.278H919.138Z" fill="white"/>
<path opacity="0.1" d="M283.223 166.859H276.883C278.059 166.859 279.187 166.392 280.019 165.56C280.851 164.728 281.318 163.6 281.318 162.424C281.318 161.247 280.851 160.119 280.019 159.287C279.187 158.455 278.059 157.988 276.883 157.988H225.535C224.359 157.988 223.231 158.455 222.399 159.287C221.567 160.119 221.1 161.247 221.1 162.424C221.1 163.6 221.567 164.728 222.399 165.56C223.231 166.392 224.359 166.859 225.535 166.859H231.875C230.731 166.908 229.649 167.398 228.857 168.225C228.064 169.052 227.622 170.153 227.622 171.299C227.622 172.445 228.064 173.546 228.857 174.373C229.649 175.201 230.731 175.69 231.875 175.739H223.004C221.828 175.739 220.699 176.206 219.868 177.038C219.036 177.87 218.568 178.998 218.568 180.174C218.568 181.351 219.036 182.479 219.868 183.311C220.699 184.143 221.828 184.61 223.004 184.61H274.343C275.52 184.61 276.648 184.143 277.48 183.311C278.312 182.479 278.779 181.351 278.779 180.174C278.779 178.998 278.312 177.87 277.48 177.038C276.648 176.206 275.52 175.739 274.343 175.739H283.223C284.367 175.69 285.449 175.201 286.241 174.373C287.034 173.546 287.476 172.445 287.476 171.299C287.476 170.153 287.034 169.052 286.241 168.225C285.449 167.398 284.367 166.908 283.223 166.859Z" fill="#6C63FF"/>
<path opacity="0.1" d="M509.847 278.328H503.507C504.683 278.328 505.812 277.861 506.644 277.029C507.475 276.197 507.943 275.069 507.943 273.892C507.943 272.716 507.475 271.588 506.644 270.756C505.812 269.924 504.683 269.457 503.507 269.457H452.16C450.983 269.457 449.855 269.924 449.023 270.756C448.191 271.588 447.724 272.716 447.724 273.892C447.724 275.069 448.191 276.197 449.023 277.029C449.855 277.861 450.983 278.328 452.16 278.328H458.483C457.339 278.377 456.257 278.866 455.465 279.693C454.672 280.521 454.23 281.622 454.23 282.768C454.23 283.913 454.672 285.015 455.465 285.842C456.257 286.669 457.339 287.158 458.483 287.207H449.612C449.03 287.207 448.453 287.322 447.915 287.545C447.377 287.768 446.888 288.095 446.476 288.507C446.064 288.918 445.737 289.407 445.514 289.946C445.291 290.484 445.177 291.061 445.177 291.643C445.177 292.226 445.291 292.802 445.514 293.341C445.737 293.879 446.064 294.368 446.476 294.78C446.888 295.191 447.377 295.518 447.915 295.741C448.453 295.964 449.03 296.079 449.612 296.079H500.968C502.144 296.079 503.272 295.611 504.104 294.78C504.936 293.948 505.403 292.819 505.403 291.643C505.403 290.467 504.936 289.338 504.104 288.507C503.272 287.675 502.144 287.207 500.968 287.207H509.847C510.992 287.158 512.073 286.669 512.866 285.842C513.658 285.015 514.101 283.913 514.101 282.768C514.101 281.622 513.658 280.521 512.866 279.693C512.073 278.866 510.992 278.377 509.847 278.328Z" fill="#6C63FF"/>
<path opacity="0.1" d="M895.844 132.774H889.504C890.68 132.774 891.809 132.307 892.64 131.475C893.472 130.643 893.94 129.515 893.94 128.339C893.94 127.162 893.472 126.034 892.64 125.202C891.809 124.37 890.68 123.903 889.504 123.903H838.156C836.98 123.903 835.852 124.37 835.02 125.202C834.188 126.034 833.721 127.162 833.721 128.339C833.721 129.515 834.188 130.643 835.02 131.475C835.852 132.307 836.98 132.774 838.156 132.774H844.497C843.32 132.774 842.192 133.242 841.36 134.073C840.528 134.905 840.061 136.034 840.061 137.21C840.061 138.386 840.528 139.515 841.36 140.346C842.192 141.178 843.32 141.646 844.497 141.646H835.625C834.481 141.695 833.399 142.184 832.607 143.011C831.814 143.838 831.372 144.94 831.372 146.085C831.372 147.231 831.814 148.332 832.607 149.159C833.399 149.987 834.481 150.476 835.625 150.525H886.965C887.564 150.551 888.162 150.455 888.723 150.243C889.284 150.032 889.796 149.709 890.229 149.294C890.662 148.879 891.006 148.381 891.242 147.83C891.477 147.278 891.598 146.685 891.598 146.085C891.598 145.486 891.477 144.892 891.242 144.341C891.006 143.789 890.662 143.291 890.229 142.877C889.796 142.462 889.284 142.139 888.723 141.927C888.162 141.716 887.564 141.62 886.965 141.646H895.844C897.02 141.646 898.149 141.178 898.98 140.346C899.812 139.515 900.28 138.386 900.28 137.21C900.28 136.034 899.812 134.905 898.98 134.073C898.149 133.242 897.02 132.774 895.844 132.774Z" fill="#6C63FF"/>
<path d="M822.156 351.3L822.205 351.227L822.009 351.097L821.611 350.828C821.639 350.845 821.664 350.867 821.684 350.893C821.334 350.689 820.921 350.623 820.526 350.708C820.13 350.792 819.78 351.02 819.543 351.349L819.299 351.683L807.905 368.041L805.911 370.914C799.921 369.108 790.187 376.709 785.247 381.063L784.384 381.837C783.993 380.958 783.765 380.404 783.765 380.404C783.521 383.074 774.072 387.086 771.866 388.543C770.873 389.141 769.763 389.518 768.611 389.65C768.92 379.468 761.058 368.758 761.058 368.758L741.842 344.276C741.134 339.85 741.819 335.314 743.804 331.295C743.959 330.977 744.13 330.66 744.309 330.343C744.577 330.343 744.862 330.343 745.122 330.343H745.228C746.797 330.341 748.363 330.202 749.908 329.928C755.565 328.925 760.721 326.05 764.548 321.765C768.375 317.481 770.651 312.034 771.012 306.301C772.949 305.804 774.593 304.006 774.316 301.938C774.389 301.546 774.389 301.143 774.316 300.75C774.264 300.503 774.19 300.26 774.096 300.026C773.551 298.634 772.379 297.511 771.533 296.241C770.346 294.381 769.711 292.222 769.702 290.015C769.776 288.087 770.076 286.175 770.597 284.318C770.984 283.21 771.169 282.041 771.142 280.867V280.631C771.157 280.324 771.143 280.016 771.101 279.711C771.066 279.493 771.015 279.278 770.947 279.068C770.472 277.759 769.565 276.65 768.375 275.927C765.331 273.941 761.433 273.908 758.014 272.671C753.05 270.856 748.565 266.372 743.365 267.454C740.532 268.04 738.359 270.213 735.909 271.743C733.206 273.434 730.103 274.378 726.916 274.478C724.238 274.56 721.528 274.039 718.891 274.478C718.417 274.563 717.952 274.688 717.499 274.852C715.257 274.09 712.901 273.719 710.533 273.754C708.209 273.694 705.92 274.325 703.957 275.569C700.392 278.051 699.448 282.894 699.497 287.199C699.492 287.234 699.492 287.27 699.497 287.305C699.497 287.59 699.497 287.866 699.497 288.119C699.497 290.186 699.7 292.286 699.741 294.353C699.761 296.282 699.486 298.204 698.927 300.05C697.299 305.161 692.587 309.068 691.643 314.366C691.483 315.279 691.428 316.208 691.48 317.133C691.415 320.128 692.375 323.132 693.262 326.037C695.102 332.044 696.518 338.424 696.567 344.659C696.528 348.531 695.757 352.361 694.296 355.947C693.856 356.995 693.31 357.996 692.668 358.934C692.456 359.227 692.237 359.52 692.001 359.797L691.911 359.903C691.708 360.139 691.488 360.358 691.268 360.57L691.089 360.741C690.879 360.926 690.659 361.1 690.43 361.262L690.21 361.425C689.905 361.632 689.584 361.814 689.25 361.97L690.878 361.872C690.38 362.286 689.834 362.636 689.25 362.914L697.893 362.409C697.915 362.503 697.929 362.598 697.934 362.694C697.909 362.909 697.868 363.121 697.812 363.329C697.753 363.531 697.683 363.73 697.6 363.923C697.602 363.95 697.602 363.977 697.6 364.005C697.425 364.392 697.201 364.756 696.933 365.087L696.86 365.168C696.727 365.333 696.582 365.488 696.428 365.632C696.28 365.765 696.122 365.888 695.956 365.999L695.85 366.08C695.678 366.191 695.498 366.292 695.313 366.381C695.133 366.464 694.949 366.534 694.76 366.593L694.613 366.633C694.416 366.689 694.215 366.727 694.011 366.747L694.825 366.658C695.37 366.593 695.915 366.519 696.453 366.43H696.615C695.921 367.147 695.002 367.604 694.011 367.724C695.873 367.579 697.711 367.216 699.488 366.642C700.612 374.202 703.11 397.243 701.735 401.5C700.262 406.033 704.022 439.272 704.022 439.272C704.022 439.272 704.534 441.819 705.43 445.62C703.118 451.081 700.481 457.12 699.155 459.546C696.501 464.429 697.804 489.22 706.968 500.239C706.968 500.239 710.761 505.587 709.759 507.564C708.758 509.542 709.93 512.92 709.93 512.92L711.379 545.019C711.348 548.299 711.122 551.573 710.704 554.826C706.805 559.669 700.774 566.725 697.942 567.848C693.555 569.631 660.837 609.356 660.837 609.356C660.837 609.356 661.098 609.836 661.611 610.617L660.691 611.684L654.416 618.96L653.919 619.538C652.739 619.318 644.902 617.91 638.667 617.438L638.057 617.397V617.291C635.868 617.034 633.653 617.092 631.481 617.462H631.432C631.023 617.543 630.647 617.741 630.35 618.032C628.225 620.628 627.094 661.493 627.094 661.493C627.094 661.493 629.357 681.905 636.389 683.077C636.756 683.204 637.14 683.278 637.528 683.297H637.536C637.666 683.305 637.797 683.305 637.927 683.297C642.973 682.931 645.252 680.041 646.302 678.047C646.609 677.448 646.844 676.814 647.001 676.159C647.001 676.159 646.188 672.513 648.393 667.491C650.599 662.47 654.693 653.704 654.693 653.704C654.693 653.704 662.172 645.834 660.837 642.017L661.554 640.983C664.37 636.979 670.042 629.068 674.633 623.786L675.528 622.769C677.2 623.481 678.951 623.989 680.745 624.283C680.745 624.283 687.777 621.532 690.397 615.33C691.512 612.709 695.875 608.07 700.522 603.594C700.424 604.359 700.376 604.79 700.376 604.79L700.213 643.856C701.724 644.896 703.335 645.783 705.023 646.501C705.023 646.819 705.023 647.144 705.023 647.478C705.058 653.047 704.723 658.613 704.022 664.138L703.875 665.001C703.297 664.586 702.801 664.447 702.475 664.773C701.035 666.23 700.139 675.557 700.034 679.854C700.034 679.935 700.034 680.017 700.034 680.098C699.936 681.872 699.464 683.989 699.464 685.877C699.415 688.619 700.278 690.931 704.713 691.126C710.223 691.354 733.924 691.72 746.612 691.94C753.45 692.077 760.105 689.719 765.331 685.307C767.659 683.313 769.441 681.099 769.498 679.008C769.612 677.38 768.741 675.858 766.316 674.523C766.304 674.579 766.288 674.633 766.267 674.686C765.95 674.515 765.608 674.344 765.233 674.181L753.025 672.269L732.271 661.68C732.271 661.68 732.149 655.267 729.659 656.333C728.916 656.487 728.204 656.762 727.551 657.147C727.429 656.903 727.299 656.659 727.176 656.398C725.487 653.04 724.609 649.333 724.613 645.574C724.613 645.232 724.613 644.89 724.662 644.54C725.275 643.99 725.851 643.4 726.387 642.774C726.387 642.774 726.224 628.181 727.852 625.422C729.48 622.663 734.566 594.771 734.566 594.771C734.566 594.771 734.729 589.587 738.001 586.502C741.273 583.418 740.125 574.506 740.125 574.506C740.125 574.506 744.699 572.064 746.172 564.129C747.645 556.194 752.39 538.834 752.39 538.834C752.39 538.834 762.206 513.213 761.555 497C760.904 480.788 762.531 472.356 762.531 472.356L764.574 434.682V434.096C765.388 434.722 765.933 435.219 765.933 435.219C765.933 435.219 765.933 435.072 765.933 434.812L766.405 435.219C766.405 435.219 767.447 418.127 767.097 411.348C772.794 409.403 781.535 406.204 782.024 404.576C782.764 402.135 792.604 394.484 792.604 394.484C792.394 394.444 792.193 394.367 792.01 394.256C792.319 394.118 792.637 393.947 792.978 393.768C799.408 390.317 811.364 380.25 809.354 374.089L822.425 355.288C822.839 354.692 823.039 353.972 822.99 353.247C822.941 352.522 822.647 351.835 822.156 351.3ZM715.668 333.02C715.35 333.024 715.032 333.049 714.716 333.094C714.136 329.739 713.321 326.429 712.274 323.189C710.761 318.094 709.133 312.966 708.889 307.668C708.889 307.44 708.889 307.204 708.889 306.976C708.915 305.579 709.098 304.19 709.434 302.834C709.743 303.411 710.093 303.981 710.451 304.518C712.543 307.676 714.985 310.679 716.271 314.236C716.856 315.864 717.198 317.63 718.094 319.119C718.989 320.609 720.641 321.87 722.383 321.602C722.982 321.506 723.545 321.25 724.01 320.861C721.674 325.201 718.877 329.278 715.668 333.02Z" fill="url(#paint0_linear)"/>
<path d="M790.684 397.87C789.741 398.457 788.693 398.855 787.599 399.042C783.53 399.156 780.274 388.258 780.274 388.258C780.274 388.258 781.422 387.095 783.245 385.467C788.641 380.673 799.97 371.81 805.276 376.766C811.209 382.325 797.618 394.118 790.684 397.87Z" fill="#A96365"/>
<path d="M729.505 657.782L714.651 673.815C714.651 673.815 700.905 673.97 703.599 666.384C704.128 664.742 704.509 663.056 704.738 661.347C705.419 655.948 705.743 650.51 705.707 645.069C705.707 641.512 705.65 639.022 705.65 639.022C705.65 639.022 727.291 629.54 725.077 639.413C724.791 640.671 724.639 641.956 724.621 643.246C724.606 646.901 725.442 650.51 727.063 653.786C727.745 655.194 728.563 656.532 729.505 657.782Z" fill="#A96365"/>
<path opacity="0.1" d="M729.505 657.782L714.651 673.816C714.651 673.816 700.905 673.97 703.599 666.385C704.128 664.743 704.509 663.057 704.738 661.347C706.7 662.861 709.524 667.337 709.524 667.337C709.524 667.337 718.997 670.104 721.602 661.811C723.067 657.172 725.362 654.877 727.112 653.754C727.777 655.171 728.578 656.52 729.505 657.782Z" fill="black"/>
<path d="M763.955 681.93C758.926 686.243 752.488 688.56 745.863 688.441C733.614 688.262 710.72 687.904 705.405 687.684C698.292 687.375 700.652 681.303 700.88 677.103C700.88 676.957 700.88 676.819 700.88 676.68C700.961 672.497 701.832 663.414 703.224 662.031C704.616 660.647 709.499 668.346 709.499 668.346C709.499 668.346 718.972 671.113 721.577 662.82C724.181 654.527 729.504 653.672 729.504 653.672C731.946 652.63 732.035 658.881 732.035 658.881L752.097 669.233L763.866 671.089C764.248 671.26 764.59 671.439 764.916 671.61C770.198 674.556 767.854 678.56 763.955 681.93Z" fill="#6C63FF"/>
<path opacity="0.25" d="M726.883 665.994C727.364 665.994 727.754 665.604 727.754 665.123C727.754 664.642 727.364 664.252 726.883 664.252C726.402 664.252 726.012 664.642 726.012 665.123C726.012 665.604 726.402 665.994 726.883 665.994Z" fill="white"/>
<path opacity="0.25" d="M735.022 670.023C735.503 670.023 735.893 669.633 735.893 669.152C735.893 668.671 735.503 668.281 735.022 668.281C734.541 668.281 734.151 668.671 734.151 669.152C734.151 669.633 734.541 670.023 735.022 670.023Z" fill="white"/>
<path opacity="0.25" d="M739.214 671.903C739.695 671.903 740.085 671.513 740.085 671.032C740.085 670.551 739.695 670.161 739.214 670.161C738.733 670.161 738.343 670.551 738.343 671.032C738.343 671.513 738.733 671.903 739.214 671.903Z" fill="white"/>
<path opacity="0.25" d="M747.898 675.24C748.379 675.24 748.769 674.85 748.769 674.369C748.769 673.888 748.379 673.498 747.898 673.498C747.417 673.498 747.027 673.888 747.027 674.369C747.027 674.85 747.417 675.24 747.898 675.24Z" fill="white"/>
<path opacity="0.25" d="M743.478 673.816C743.959 673.816 744.349 673.426 744.349 672.945C744.349 672.464 743.959 672.074 743.478 672.074C742.997 672.074 742.607 672.464 742.607 672.945C742.607 673.426 742.997 673.816 743.478 673.816Z" fill="white"/>
<path d="M763.955 681.93C758.926 686.243 752.488 688.56 745.863 688.441C733.614 688.262 710.72 687.904 705.405 687.684C698.292 687.375 700.652 681.303 700.88 677.104L745.529 679.871C745.529 679.871 763.817 677.095 764.908 671.651C770.198 674.556 767.854 678.56 763.955 681.93Z" fill="#6C63FF"/>
<path opacity="0.25" d="M763.955 681.751C758.919 686.047 752.481 688.346 745.863 688.213C733.614 688.034 710.72 687.684 705.405 687.456C698.292 687.147 700.652 681.075 700.88 676.875L745.529 679.634C745.529 679.634 763.817 676.859 764.908 671.414C770.198 674.377 767.854 678.381 763.955 681.751Z" fill="white"/>
<path d="M680.834 617.495C679.19 618.832 677.687 620.335 676.35 621.98C671.922 627.131 666.445 634.839 663.727 638.737C662.677 640.251 662.034 641.179 662.034 641.179L656.109 640.3C656.109 640.3 649.712 630.533 649.793 630.273C649.874 630.013 654.847 619.53 654.847 619.53L656.776 617.275L662.848 610.178L665.59 606.972C665.59 606.972 686.206 613.621 680.834 617.495Z" fill="#A96365"/>
<path opacity="0.1" d="M663.727 638.737C662.677 640.251 662.034 641.179 662.034 641.179L656.109 640.3C656.109 640.3 649.712 630.533 649.793 630.273C649.874 630.012 654.847 619.53 654.847 619.53L656.776 617.275L657.411 617.389H658.908C653.618 622.915 659.307 635.083 659.307 635.083C659.307 635.083 661.765 635.327 663.727 638.737Z" fill="black"/>
<path d="M657.069 651.133C657.069 651.133 653.114 659.662 650.982 664.562C648.849 669.461 649.639 673.018 649.639 673.018C649.488 673.653 649.261 674.268 648.963 674.849C648.204 676.355 647.051 677.626 645.626 678.527C644.201 679.429 642.559 679.927 640.873 679.968C640.746 679.981 640.618 679.981 640.491 679.968C633.321 679.781 631.025 658.873 631.025 658.873C631.025 658.873 632.124 619.066 634.183 616.551C634.464 616.262 634.828 616.069 635.225 615.998C637.319 615.636 639.455 615.579 641.565 615.827C648.076 616.291 656.459 617.894 656.459 617.894H657.957C652.666 623.42 658.347 635.588 658.347 635.588C658.347 635.588 660.878 635.824 662.856 639.38C664.834 642.937 657.069 651.133 657.069 651.133Z" fill="#6C63FF"/>
<path opacity="0.25" d="M648.401 640.162C648.882 640.162 649.272 639.772 649.272 639.291C649.272 638.81 648.882 638.42 648.401 638.42C647.92 638.42 647.53 638.81 647.53 639.291C647.53 639.772 647.92 640.162 648.401 640.162Z" fill="white"/>
<path opacity="0.25" d="M647.969 647.055C648.45 647.055 648.84 646.665 648.84 646.184C648.84 645.703 648.45 645.314 647.969 645.314C647.489 645.314 647.099 645.703 647.099 646.184C647.099 646.665 647.489 647.055 647.969 647.055Z" fill="white"/>
<path d="M648.401 674.703C647.425 676.631 645.146 679.456 640.311 679.822H639.978C632.775 679.635 630.48 658.726 630.48 658.726C630.48 658.726 631.587 618.919 633.638 616.405C633.92 616.118 634.284 615.924 634.679 615.851C636.776 615.49 638.914 615.432 641.028 615.68C640.905 622.826 640.572 645.452 641.028 647.698C641.483 649.944 645.536 668.68 648.401 674.703Z" fill="#6C63FF"/>
<path opacity="0.25" d="M648.93 674.849C648.172 676.355 647.019 677.627 645.594 678.528C644.169 679.43 642.526 679.928 640.84 679.969C640.713 679.981 640.585 679.981 640.458 679.969C633.255 679.781 630.968 658.873 630.968 658.873C630.968 658.873 632.075 619.066 634.126 616.551C634.408 616.264 634.772 616.071 635.168 615.998C637.265 615.636 639.403 615.578 641.516 615.827C641.394 622.973 641.052 645.599 641.516 647.845C641.98 650.091 646.057 668.827 648.93 674.849Z" fill="white"/>
<path d="M639.978 679.822C632.775 679.635 630.48 658.726 630.48 658.726C630.48 658.726 631.587 618.92 633.638 616.405C633.92 616.118 634.284 615.924 634.679 615.851C636.193 618.097 637.52 623.07 636.307 634.017C634.061 654.754 636.771 656.057 636.771 656.057C636.771 656.057 640.1 673.636 639.978 679.822Z" fill="#6C63FF"/>
<path opacity="0.1" d="M639.88 679.822C632.653 679.634 630.382 658.71 630.382 658.71C630.382 658.71 631.489 618.903 633.54 616.388C633.822 616.101 634.186 615.908 634.582 615.835C636.096 618.081 637.414 623.054 636.21 634C633.963 654.738 636.673 656.04 636.673 656.04C636.673 656.04 640.043 673.636 639.88 679.822Z" fill="black"/>
<path opacity="0.1" d="M790.684 397.87C789.741 398.456 788.693 398.854 787.599 399.042C783.53 399.156 780.274 388.258 780.274 388.258C780.274 388.258 781.422 387.094 783.245 385.467C784.506 388.446 788.144 396.397 790.684 397.87Z" fill="black"/>
<path d="M764.842 393.948C764.842 393.948 768.163 394.184 770.295 392.759C772.428 391.335 781.551 387.429 781.787 384.824C781.787 384.824 787.24 398.09 790.317 398.562C790.317 398.562 780.843 406.034 780.127 408.402C779.411 410.77 760.936 416.541 760.936 416.541L764.842 393.948Z" fill="#FF748E"/>
<path d="M764.842 393.948C764.842 393.948 768.163 394.184 770.295 392.759C772.428 391.335 781.551 387.429 781.787 384.824C781.787 384.824 787.24 398.09 790.317 398.562C790.317 398.562 780.843 406.034 780.127 408.402C779.411 410.77 760.936 416.541 760.936 416.541L764.842 393.948Z" fill="#6C63FF"/>
<path opacity="0.1" d="M680.835 617.495C679.19 618.832 677.687 620.335 676.35 621.98C669.212 618.984 664.598 612.88 662.848 610.195L665.591 606.988C665.591 606.988 686.206 613.621 680.835 617.495Z" fill="black"/>
<path d="M714.643 550.269C714.643 550.269 703.053 565.733 698.821 567.491C694.589 569.249 663.01 607.932 663.01 607.932C663.01 607.932 669.782 620.458 682.299 622.468C682.299 622.468 689.095 619.782 691.618 613.784C694.141 607.786 714.041 590.873 714.041 590.873L714.643 550.269Z" fill="#5E5A6B"/>
<path opacity="0.1" d="M714.643 550.269C714.643 550.269 703.053 565.733 698.821 567.491C694.589 569.249 663.01 607.932 663.01 607.932C663.01 607.932 669.782 620.458 682.299 622.468C682.299 622.468 689.095 619.782 691.618 613.784C694.141 607.786 714.041 590.873 714.041 590.873L714.643 550.269Z" fill="black"/>
<path opacity="0.1" d="M679.532 602.129C683.049 602.502 686.595 602.502 690.112 602.129C696.363 601.535 691.618 605.327 679.532 602.129Z" fill="black"/>
<path opacity="0.1" d="M676.691 606.158C676.691 606.158 684.985 610.895 688.183 608.526C691.382 606.158 685.099 610.813 676.691 606.158Z" fill="black"/>
<path opacity="0.1" d="M725.068 639.453C724.788 640.699 724.638 641.97 724.62 643.246C718.215 649.057 710.508 647.267 705.69 645.142C705.69 641.586 705.633 639.095 705.633 639.095C705.633 639.095 727.282 629.581 725.068 639.453Z" fill="black"/>
<path d="M763.459 433.364L763.223 437.734L761.245 474.44C761.245 474.44 759.617 482.652 760.293 498.449C760.968 514.247 751.478 539.208 751.478 539.208C751.478 539.208 746.896 556.121 745.472 563.861C744.048 571.601 739.628 573.969 739.628 573.969C739.628 573.969 740.735 582.661 737.577 585.656C734.419 588.651 734.265 593.714 734.265 593.714C734.265 593.714 729.382 620.889 727.754 623.575C726.126 626.261 726.329 640.479 726.329 640.479C716.058 652.646 701.05 641.586 701.05 641.586L701.205 603.513C701.205 603.513 705.478 568.443 708.636 563.543C711.794 558.644 711.794 545.215 711.794 545.215L710.386 513.937C710.386 513.937 709.263 510.617 710.231 508.72C711.2 506.824 707.529 501.632 707.529 501.632C698.682 490.888 697.421 466.716 699.984 461.971C702.548 457.226 710.231 438.279 710.231 438.279L720.811 432.11L739.913 432.68L763.459 433.364Z" fill="#5E5A6B"/>
<path opacity="0.1" d="M718.517 619.546C718.517 619.546 721.016 628.198 723.026 629.142C725.036 630.086 718.517 619.546 718.517 619.546Z" fill="black"/>
<path opacity="0.1" d="M721.951 590.751C721.951 590.751 728.462 595.862 731.14 595.846C733.818 595.83 721.951 590.751 721.951 590.751Z" fill="black"/>
<path d="M760.936 376.88V387.306L754.05 384.344L747.189 381.381L732.263 366.691C732.263 366.691 720.453 359.016 714.13 352.041C710.516 348.053 708.693 344.285 711.883 342.274C713.419 341.263 714.808 340.044 716.01 338.653C719.189 334.909 721.953 330.832 724.254 326.493L724.547 325.964C727.624 320.316 729.65 315.498 729.65 315.498C729.65 315.498 738.31 318.273 743.885 322.204C744.333 322.513 744.756 322.839 745.163 323.173C748.272 325.72 749.81 328.666 746.953 331.612C746.214 332.376 745.532 333.192 744.91 334.054C744.448 334.691 744.027 335.357 743.649 336.048C743.478 336.357 743.315 336.667 743.161 336.968C741.243 340.891 740.581 345.31 741.264 349.624L760.936 376.88Z" fill="#A96365"/>
<path opacity="0.1" d="M746.954 331.621C746.215 332.384 745.532 333.2 744.911 334.062C744.448 334.699 744.027 335.365 743.65 336.056C743.479 336.366 743.316 336.675 743.161 336.976C739.509 336.774 735.947 335.768 732.729 334.029C729.511 332.29 726.718 329.861 724.548 326.916C724.439 326.781 724.342 326.642 724.255 326.501L724.548 325.972C727.624 320.324 729.651 315.506 729.651 315.506C729.651 315.506 738.311 318.281 743.886 322.212C744.333 322.521 744.756 322.847 745.163 323.181C748.272 325.728 749.851 328.674 746.954 331.621Z" fill="black"/>
<path d="M769.441 311.184C769.446 314.453 768.807 317.691 767.558 320.712C766.31 323.733 764.477 326.478 762.166 328.789C759.854 331.101 757.109 332.933 754.088 334.182C751.067 335.43 747.83 336.07 744.561 336.065H744.455C744.186 336.065 743.91 336.065 743.641 336.065C738.88 335.889 734.269 334.35 730.356 331.63C726.444 328.91 723.395 325.124 721.571 320.722C719.748 316.32 719.227 311.487 720.071 306.797C720.914 302.108 723.086 297.759 726.329 294.268C729.572 290.777 733.749 288.29 738.364 287.104C742.979 285.918 747.838 286.082 752.362 287.577C756.886 289.071 760.886 291.834 763.887 295.535C766.887 299.237 768.761 303.722 769.286 308.458C769.387 309.363 769.439 310.273 769.441 311.184Z" fill="#A96365"/>
<path opacity="0.1" d="M747.825 372.697C747.825 372.697 760.358 379.77 757.143 373.804L740.793 349.632L759.357 373.487C759.357 373.487 771.207 389.764 764.729 400.971C764.729 400.971 763.777 410.298 764.883 412.504C765.99 414.71 764.566 438.263 764.566 438.263C764.566 438.263 760.147 434.194 757.778 434.942C755.41 435.691 738.66 437.156 738.66 437.156L747.825 372.697Z" fill="black"/>
<path opacity="0.1" d="M763.459 433.364L763.223 437.734C761.726 436.644 759.634 435.423 758.25 435.887C755.882 436.701 739.132 438.1 739.132 438.1L739.906 432.664L763.459 433.364Z" fill="black"/>
<path d="M748.297 372.697C748.297 372.697 760.83 379.77 757.615 373.804L741.265 349.632L759.829 373.487C759.829 373.487 771.679 389.764 765.201 400.971C765.201 400.971 764.257 410.298 765.355 412.504C766.454 414.71 765.046 438.263 765.046 438.263C765.046 438.263 760.619 434.194 758.25 434.942C755.882 435.691 739.132 437.156 739.132 437.156L748.297 372.697Z" fill="#464353"/>
<path opacity="0.1" d="M754.995 384.816C754.263 392.409 751.138 401.443 751.138 401.443C751.138 401.443 748.932 423.882 746.083 430.523C743.235 437.164 744.504 446.32 742.926 463.225C742.356 469.304 740.394 473.488 737.749 476.312C733.403 480.951 727.169 481.919 722.286 481.634C721.887 481.634 721.472 481.586 721.122 481.545C713.219 480.731 705.658 442.682 705.658 442.682C705.658 442.682 702.028 410.298 703.444 405.871C704.861 401.443 702.028 376.172 701.076 370.638C700.474 367.138 702.289 361.409 703.689 357.689C704.502 355.532 705.186 354.051 705.186 354.051C705.186 354.051 707.872 345.522 712.291 341.102C712.901 340.476 713.63 339.979 714.435 339.641C715.24 339.303 716.106 339.13 716.979 339.133C719.058 339.209 721.079 339.841 722.831 340.964L723.034 341.102C723.034 341.102 751.789 370.483 754.474 377.279C755.207 379.167 755.28 381.886 754.995 384.816Z" fill="black"/>
<path d="M754.051 384.344C753.319 391.937 750.193 400.971 750.193 400.971C750.193 400.971 747.98 423.41 745.139 430.043C742.299 436.676 743.511 445.84 741.981 462.744C741.412 468.832 739.45 473.016 736.805 475.84C732.451 480.479 726.225 481.447 721.341 481.162L720.186 481.073C712.283 480.259 704.722 442.21 704.722 442.21C704.722 442.21 701.092 409.818 702.516 405.399C703.941 400.979 701.092 375.7 700.148 370.166C699.546 366.666 701.353 360.937 702.761 357.209C703.574 355.06 704.25 353.579 704.25 353.579C704.25 353.579 706.936 345.05 711.363 340.622C711.972 339.999 712.7 339.504 713.504 339.167C714.308 338.83 715.171 338.658 716.043 338.661C718.125 338.738 720.148 339.37 721.903 340.492L722.106 340.622C722.106 340.622 750.861 370.011 753.538 376.799C754.255 378.736 754.336 381.414 754.051 384.344Z" fill="#6C63FF"/>
<path opacity="0.1" d="M721.837 500.004C721.837 500.004 715.326 505.807 713.063 505.571C710.801 505.335 721.837 500.004 721.837 500.004Z" fill="black"/>
<path opacity="0.1" d="M723.57 505.571C723.57 505.571 716.701 508.761 714.618 509.233C712.534 509.705 720.917 504.749 723.57 505.571Z" fill="black"/>
<path opacity="0.1" d="M750.153 418.355C750.153 418.355 760.342 418.469 761.881 421.668C763.419 424.866 753.473 417.053 750.153 418.355Z" fill="black"/>
<path opacity="0.1" d="M748.728 423.922C748.728 423.922 756.549 425.55 758.918 427.479C761.286 429.408 748.728 423.922 748.728 423.922Z" fill="black"/>
<path opacity="0.1" d="M735.584 404.609C735.584 404.609 734.64 436.716 731.141 440.867C727.641 445.018 735.584 404.609 735.584 404.609Z" fill="black"/>
<path opacity="0.1" d="M726.811 495.373C726.811 495.373 720.3 523.688 733.395 525.487C746.49 527.285 742.453 493.257 742.453 493.257L726.811 495.373Z" fill="black"/>
<path d="M726.338 494.893C726.338 494.893 719.827 523.215 732.914 525.006C746.001 526.797 741.981 492.776 741.981 492.776L726.338 494.893Z" fill="#A96365"/>
<path opacity="0.1" d="M737.537 376.018C736.861 359 713.047 355.484 707.488 371.582C707.448 371.688 707.415 371.794 707.375 371.908C703.745 382.806 705.324 410.404 705.324 410.404C705.324 410.404 705.796 428.936 707.537 435.097C709.279 441.258 714.17 458.952 714.17 461.8C714.17 464.649 718.712 475.547 720.624 476.336C722.537 477.126 723.506 483.287 723.969 484.394C724.433 485.501 725.866 499.857 725.866 499.857C725.866 499.857 743.714 498.75 744.032 495.91C744.349 493.07 740.084 479.177 740.084 479.177C740.084 479.177 736.935 473.48 736.536 468.906C736.137 464.332 733.606 462.272 734.094 459.139C734.582 456.006 732.67 454.394 732.67 452.343C732.67 450.292 731.254 444.758 731.254 444.758C731.254 444.758 728.25 442.389 728.723 439.549C729.195 436.709 724.458 431.02 725.719 428.969C726.981 426.918 727.298 421.863 727.298 421.863C727.298 421.863 728.877 399.075 729.984 392.946C731.091 386.818 737.569 376.84 737.569 376.84C737.569 376.84 737.553 376.522 737.537 376.018Z" fill="black"/>
<path opacity="0.1" d="M736.829 475.84C732.475 480.479 726.249 481.447 721.365 481.162C720.804 479.006 719.974 476.361 718.761 475.856C716.848 475.042 712.307 464.169 712.307 461.328C712.307 458.488 707.424 440.786 705.674 434.625C703.924 428.464 703.46 409.932 703.46 409.932C703.46 409.932 701.832 382.333 705.487 371.411C705.487 371.297 705.552 371.191 705.593 371.077C711.151 354.979 734.965 358.503 735.641 375.521C735.641 376.026 735.641 376.335 735.641 376.335C735.641 376.335 729.13 386.289 728.064 392.45C726.998 398.611 725.37 421.359 725.37 421.359C725.37 421.359 725.052 426.421 723.791 428.472C722.529 430.523 727.266 436.212 726.794 439.052C726.322 441.893 729.317 444.261 729.317 444.261C729.317 444.261 730.741 449.788 730.741 451.847C730.741 453.906 732.638 455.477 732.166 458.642C731.694 461.808 734.225 463.851 734.607 468.409C734.965 470.985 735.714 473.49 736.829 475.84Z" fill="black"/>
<path d="M736.585 375.545C735.91 358.527 712.104 355.003 706.545 371.102C706.545 371.215 706.464 371.321 706.431 371.435C702.801 382.333 704.38 409.932 704.38 409.932C704.38 409.932 704.852 428.464 706.586 434.625C708.319 440.786 713.227 458.496 713.227 461.328C713.227 464.16 717.76 475.066 719.681 475.856C721.602 476.645 722.562 482.814 723.026 483.913C723.49 485.012 724.914 499.377 724.914 499.377C724.914 499.377 742.771 498.27 743.08 495.421C743.389 492.573 739.133 478.68 739.133 478.68C739.133 478.68 735.991 472.983 735.584 468.409C735.177 463.835 732.654 461.776 733.143 458.642C733.631 455.509 731.718 453.897 731.718 451.846C731.718 449.795 730.294 444.261 730.294 444.261C730.294 444.261 727.291 441.893 727.771 439.052C728.251 436.212 723.498 430.515 724.768 428.472C726.038 426.429 726.347 421.367 726.347 421.367C726.347 421.367 727.926 398.578 729.033 392.45C730.139 386.321 736.618 376.335 736.618 376.335C736.618 376.335 736.61 376.05 736.585 375.545Z" fill="#6C63FF"/>
<path opacity="0.1" d="M707.261 419.3C707.733 418.828 716.743 408.874 719.583 412.431C722.424 415.987 707.261 419.3 707.261 419.3Z" fill="black"/>
<path opacity="0.1" d="M708.091 426.999C708.441 426.649 717.093 426.291 719.225 421.432C721.357 416.573 708.091 426.999 708.091 426.999Z" fill="black"/>
<g opacity="0.1">
<path opacity="0.1" d="M698.235 339.67C698.45 339.919 698.61 340.21 698.707 340.524C698.885 339.982 698.934 339.406 698.852 338.841C698.771 338.276 698.559 337.738 698.235 337.269C697.812 336.78 697.193 336.496 696.811 335.983C696.811 335.942 696.762 335.893 696.729 335.844C696.515 336.231 696.409 336.668 696.424 337.109C696.438 337.55 696.572 337.98 696.811 338.351C697.193 338.856 697.812 339.149 698.235 339.67Z" fill="black"/>
<path opacity="0.1" d="M710.289 308.93C710.289 308.026 710.329 307.131 710.289 306.244C710.118 302.988 709.524 299.733 709.385 296.477C709.198 300.433 710.077 304.616 710.289 308.612V308.93Z" fill="black"/>
</g>
<path d="M794.134 391.099L794.622 391.441C794.196 391.145 793.904 390.692 793.809 390.182C793.715 389.671 793.826 389.144 794.118 388.714L816.092 356.843C816.238 356.632 816.424 356.451 816.64 356.312C816.855 356.173 817.096 356.078 817.349 356.032C817.601 355.985 817.86 355.989 818.111 356.044C818.362 356.098 818.6 356.201 818.811 356.347L818.331 356.005C818.671 356.238 818.963 356.536 819.188 356.882C819.413 357.228 819.568 357.615 819.644 358.021C819.719 358.427 819.714 358.844 819.628 359.248C819.543 359.652 819.378 360.035 819.145 360.375L798.537 390.293C798.303 390.638 798.003 390.932 797.654 391.16C797.305 391.387 796.914 391.543 796.504 391.618C796.095 391.693 795.674 391.686 795.267 391.597C794.86 391.507 794.475 391.338 794.134 391.099Z" fill="#464353"/>
<path d="M818.396 356.006L818.919 356.366L794.745 391.46L794.222 391.1C793.913 390.887 793.701 390.56 793.633 390.19C793.565 389.821 793.646 389.44 793.859 389.131L816.408 356.395C816.511 356.237 816.645 356.102 816.802 355.997C816.959 355.891 817.135 355.818 817.32 355.782C817.505 355.746 817.696 355.747 817.881 355.785C818.065 355.824 818.241 355.899 818.396 356.006Z" fill="#9F9EFF"/>
<path d="M815.86 360.916L815.76 360.847C815.697 360.803 815.611 360.819 815.568 360.882L813.753 363.516C813.71 363.579 813.726 363.665 813.788 363.709L813.889 363.778C813.952 363.821 814.038 363.805 814.082 363.742L815.896 361.108C815.939 361.045 815.923 360.959 815.86 360.916Z" fill="#464353"/>
<path opacity="0.1" d="M772.567 308.14C772.217 306.439 770.825 305.194 769.864 303.745C767.472 300.14 767.846 295.371 768.961 291.187C769.372 290.046 769.546 288.833 769.474 287.623C769.314 286.858 768.997 286.134 768.543 285.498C768.09 284.862 767.508 284.327 766.837 283.928C763.899 281.999 760.131 281.974 756.834 280.753C752.041 278.979 747.703 274.609 742.705 275.667C739.971 276.245 737.871 278.361 735.511 279.85C732.901 281.494 729.901 282.413 726.819 282.511C724.23 282.593 721.618 282.088 719.07 282.511C718.613 282.593 718.163 282.716 717.728 282.878C715.561 282.14 713.285 281.777 710.997 281.803C708.751 281.751 706.542 282.369 704.649 283.578C701.206 286.019 700.286 290.699 700.343 294.907C700.4 299.114 701.108 303.452 699.814 307.457C698.186 312.446 693.694 316.247 692.782 321.407C692.164 324.914 693.319 328.455 694.353 331.865C697.315 341.631 699.277 352.472 695.346 361.921C694.345 364.314 692.847 366.683 690.463 367.781L698.813 367.285C698.903 367.875 698.876 368.477 698.733 369.056C698.591 369.636 698.335 370.182 697.982 370.663C697.628 371.143 697.183 371.55 696.672 371.858C696.161 372.167 695.594 372.372 695.004 372.461C697.11 372.328 699.18 371.853 701.133 371.053C702.108 370.646 702.969 370.009 703.643 369.195C704.316 368.381 704.781 367.415 704.998 366.381C705.161 365.25 704.917 364.07 705.234 362.979C705.78 361.099 707.676 360.066 709.263 358.861C713.333 355.687 715.27 350.34 715.424 345.172C715.579 340.004 714.212 334.925 712.747 329.96C711.282 324.996 709.711 320.007 709.491 314.839C709.396 312.949 709.571 311.055 710.012 309.215C710.313 309.776 710.647 310.33 710.997 310.842C713.015 313.919 715.375 316.841 716.612 320.308C717.049 321.951 717.638 323.551 718.37 325.085C719.233 326.55 720.812 327.763 722.513 327.527C724.214 327.291 725.451 325.452 726.013 323.726C726.574 322.001 726.827 320.121 727.86 318.648C729.846 315.864 733.818 315.612 737.236 315.718C744.439 315.945 754.376 317.036 760.025 311.502C761.099 310.452 761.652 308.848 763.28 309.239C764.778 309.589 765.616 312.031 767.219 312.576C769.84 313.479 773.161 311.038 772.567 308.14Z" fill="black"/>
<path d="M772.567 307.221C772.217 305.52 770.825 304.266 769.864 302.826C767.472 299.212 767.846 294.443 768.961 290.268C769.372 289.126 769.546 287.914 769.474 286.703C769.314 285.938 768.997 285.215 768.543 284.578C768.09 283.942 767.508 283.408 766.837 283.008C763.899 281.079 760.131 281.047 756.834 279.834C752.041 278.06 747.703 273.689 742.705 274.747C739.971 275.325 737.871 277.441 735.511 278.93C732.9 280.571 729.9 281.489 726.819 281.592C724.23 281.673 721.618 281.169 719.07 281.592C718.613 281.674 718.163 281.796 717.728 281.958C715.561 281.221 713.285 280.857 710.997 280.884C708.753 280.834 706.544 281.449 704.649 282.65C701.206 285.091 700.286 289.779 700.343 293.987C700.4 298.195 701.108 302.533 699.814 306.537C698.186 311.526 693.694 315.327 692.782 320.487C692.164 323.995 693.319 327.535 694.353 330.945C697.315 340.712 699.277 351.553 695.346 360.994C694.345 363.395 692.847 365.763 690.463 366.862L698.813 366.365C698.903 366.955 698.876 367.556 698.733 368.135C698.59 368.714 698.335 369.26 697.981 369.74C697.627 370.22 697.182 370.625 696.671 370.933C696.16 371.241 695.594 371.445 695.004 371.533C697.11 371.407 699.181 370.934 701.133 370.133C702.108 369.727 702.969 369.089 703.643 368.275C704.316 367.461 704.781 366.496 704.998 365.462C705.161 364.331 704.917 363.15 705.234 362.06C705.78 360.18 707.676 359.146 709.263 357.942C713.333 354.768 715.27 349.42 715.424 344.252C715.579 339.084 714.212 333.997 712.747 329.041C711.282 324.084 709.711 319.087 709.491 313.919C709.396 312.029 709.571 310.135 710.012 308.295C710.313 308.857 710.647 309.41 710.997 309.923C713.015 312.999 715.375 315.921 716.612 319.388C717.048 321.03 717.637 322.626 718.37 324.158C719.233 325.623 720.812 326.843 722.513 326.599C724.214 326.355 725.451 324.532 726.013 322.807C726.574 321.081 726.827 319.201 727.86 317.728C729.846 314.944 733.818 314.692 737.236 314.798C744.439 315.026 754.376 316.116 760.025 310.582C761.099 309.532 761.652 307.929 763.28 308.32C764.778 308.67 765.616 311.111 767.219 311.656C769.84 312.56 773.161 310.118 772.567 307.221Z" fill="#464353"/>
<g opacity="0.1">
<path opacity="0.1" d="M700.368 292.384C700.368 292.926 700.368 293.469 700.368 294.011C700.368 295.769 700.514 297.552 700.579 299.318C700.652 297.039 700.449 294.703 700.368 292.384Z" fill="black"/>
<path opacity="0.1" d="M697.519 347.736C697.738 341.225 696.257 334.51 694.353 328.203C693.588 325.944 693.043 323.616 692.725 321.252C692.375 324.508 693.425 327.763 694.353 330.97C696.117 336.401 697.181 342.035 697.519 347.736Z" fill="black"/>
<path opacity="0.1" d="M768.146 294.858C768.281 293.307 768.553 291.77 768.96 290.268C769.371 289.126 769.545 287.914 769.473 286.703C769.439 286.49 769.387 286.28 769.318 286.076C769.221 286.556 769.091 287.028 768.96 287.5C768.269 289.888 767.994 292.377 768.146 294.858Z" fill="black"/>
<path opacity="0.1" d="M698.837 363.639L693.791 363.932C692.976 365.198 691.834 366.222 690.487 366.894L698.365 366.43C698.838 365.582 699.005 364.596 698.837 363.639Z" fill="black"/>
<path opacity="0.1" d="M772.347 306.504C771.916 307.45 771.162 308.211 770.221 308.65C769.28 309.09 768.213 309.181 767.211 308.905C765.583 308.36 764.769 305.918 763.272 305.568C761.644 305.178 761.091 306.789 760.016 307.839C754.376 313.365 744.439 312.275 737.228 312.047C733.809 311.941 729.838 312.193 727.852 314.977C726.794 316.45 726.558 318.338 726.004 320.064C725.451 321.789 724.295 323.58 722.505 323.856C720.714 324.133 719.249 322.904 718.362 321.415C717.631 319.882 717.042 318.286 716.604 316.645C715.367 313.178 713.007 310.248 710.988 307.172C710.638 306.651 710.305 306.097 710.003 305.544C709.563 307.387 709.387 309.284 709.483 311.176C709.483 311.306 709.483 311.445 709.483 311.575C709.547 310.477 709.711 309.388 709.971 308.319C710.272 308.881 710.606 309.434 710.956 309.947C712.974 313.024 715.334 315.945 716.571 319.413C717.007 321.054 717.596 322.651 718.329 324.182C719.192 325.647 720.771 326.868 722.472 326.623C724.173 326.379 725.41 324.556 725.972 322.831C726.533 321.105 726.786 319.225 727.819 317.752C729.805 314.969 733.777 314.716 737.195 314.822C744.398 315.05 754.335 316.141 759.984 310.606C761.058 309.556 761.611 307.953 763.239 308.344C764.737 308.694 765.575 311.135 767.178 311.681C769.807 312.568 773.128 310.126 772.534 307.229C772.488 306.983 772.425 306.741 772.347 306.504Z" fill="black"/>
<path opacity="0.1" d="M709.287 355.207C707.741 356.411 705.804 357.445 705.259 359.325C704.941 360.424 705.185 361.596 705.023 362.727C704.807 363.762 704.342 364.729 703.668 365.545C702.995 366.36 702.133 366.999 701.157 367.407C700.387 367.76 699.582 368.033 698.756 368.22C698.53 369.082 698.056 369.858 697.394 370.452C696.731 371.047 695.909 371.434 695.028 371.566C697.134 371.44 699.205 370.967 701.157 370.166C702.132 369.759 702.993 369.121 703.667 368.307C704.34 367.493 704.806 366.528 705.023 365.494C705.185 364.363 704.941 363.183 705.259 362.092C705.804 360.212 707.7 359.178 709.287 357.974C713.357 354.8 715.294 349.453 715.448 344.284C715.448 343.511 715.448 342.746 715.448 341.981C715.155 346.995 713.227 352.13 709.287 355.207Z" fill="black"/>
</g>
<path d="M370.698 666.368H370.885C370.885 666.368 341 585.323 332.633 574.311C332.633 574.311 323.868 569.191 324.266 560.54L313.515 508.956C313.515 508.956 313.678 508.802 313.946 508.509L314.174 508.257C314.256 508.167 314.345 508.069 314.435 507.955C315.87 506.289 317.072 504.436 318.008 502.445C318.065 502.315 318.13 502.193 318.187 502.063C318.586 501.16 318.921 500.23 319.188 499.279C319.939 499.54 320.763 499.496 321.483 499.157C321.483 499.157 321.483 498.881 321.483 498.384C321.483 498.384 321.377 495.332 321.369 490.563C321.369 489.228 321.369 487.779 321.369 486.241C321.717 485.003 322.002 483.748 322.224 482.481L321.784 482.278C321.784 482.212 321.784 482.155 321.825 482.09L321.459 481.919C321.752 470.607 322.728 456.152 325.528 446.304C325.626 445.954 325.723 445.612 325.829 445.271C329.15 434.519 329.223 421.391 330.077 410.274C330.749 411.666 331.325 413.102 331.803 414.571C332.225 414.104 332.713 413.701 333.252 413.375L336.589 439.752V470.826C336.589 470.826 331.005 510.959 348.536 503.487C366.067 496.016 353.322 468.49 353.322 468.49C353.322 468.49 353.322 453.149 355.715 445.279C357.285 440.102 356.268 423.304 355.389 412.488C357.066 412.789 358.099 413.025 358.099 413.025C358.488 411.447 358.663 409.823 358.62 408.198C358.978 390.065 336.328 360.831 327.091 349.681C324.446 345.697 320.77 342.507 316.453 340.451L298.735 331.979C298.735 331.979 290.393 329.904 287.137 323.555C287.137 323.449 287.08 323.336 287.056 323.222C287.422 323.059 287.788 322.888 288.147 322.701C290.843 321.416 293.211 319.535 295.073 317.199C298.849 312.462 300.648 306.529 302.398 300.75C304.424 293.963 306.467 287.02 306.198 279.94C305.93 272.859 302.943 265.501 296.831 261.741C291.63 258.535 284.386 257.924 281.163 252.789C280.293 251.405 279.764 249.761 278.6 248.638C278.609 248.401 278.531 248.168 278.382 247.984C278.232 247.8 278.02 247.676 277.786 247.637L268.752 245.895C268.498 245.847 268.236 245.9 268.022 246.043C267.807 246.186 267.657 246.408 267.604 246.66V246.782C259.633 247.001 251.807 248.965 244.677 252.536C242.149 253.753 239.722 255.168 237.418 256.769C234.162 259.064 230.907 262.091 230.451 266.03C230.215 267.992 230.695 270.002 230.288 271.923C229.214 277.067 222.239 280.412 223.256 285.563C223.94 289.063 227.952 290.569 231.704 290.577C231.01 293.026 230.656 295.56 230.654 298.105C230.687 304.565 232.949 310.815 237.058 315.799C241.168 320.784 246.872 324.196 253.207 325.46C255.939 329.252 258.333 333.278 260.361 337.489C255.771 341.794 246.159 351.789 252.051 355.15L239.843 385.052L241.031 415.89L235.863 420.455L236.994 421.855C231.208 428.513 217.795 443.073 207.996 446.947C206.592 447.506 205.231 448.17 203.927 448.933C202.129 450.055 200.135 450.826 198.05 451.204C197.139 451.297 196.238 451.468 195.356 451.716L193.021 446.923C192.613 446.091 191.894 445.453 191.019 445.148C190.145 444.843 189.185 444.896 188.349 445.295L186.917 445.979L183.506 447.606L182.09 448.282L181.008 448.795C180.596 448.989 180.227 449.263 179.923 449.601C179.618 449.938 179.383 450.333 179.231 450.762C179.08 451.192 179.015 451.646 179.041 452.101C179.066 452.555 179.182 453 179.38 453.409L182.212 459.212C178.184 462.72 176.214 466.912 181.7 470.802C183.829 472.337 186.4 473.137 189.024 473.081L190.75 476.605C191.155 477.436 191.873 478.074 192.747 478.379C193.62 478.684 194.578 478.631 195.413 478.233L197.912 477.044L202.795 474.741C203.207 474.548 203.577 474.276 203.882 473.939C204.188 473.602 204.423 473.208 204.574 472.779C204.726 472.35 204.791 471.895 204.765 471.441C204.739 470.987 204.622 470.543 204.423 470.134L203.007 467.229C206.171 464.803 209.073 462.053 211.667 459.025C211.667 459.025 218.934 454.524 223.215 453.523C226.056 452.856 236.026 446.402 242.162 442.316L243.912 487.747C243.52 488.335 243.067 488.88 242.561 489.375L243.937 488.414V488.748C243.733 488.976 243.538 489.187 243.343 489.375L243.937 488.951V489.497C243.747 489.731 243.54 489.952 243.318 490.156L243.945 489.716L244.124 494.437L247.127 489.554L247.314 494.437L248.014 493.289C239.599 507.41 228.636 528.196 222.784 549.121C222.784 549.121 213.628 564.854 214.816 580.985L197.969 660.826L198.295 660.948C192.833 664.83 181.358 671.952 170.086 672.236C170.086 672.236 142.992 671.423 150.552 677.348C158.113 683.273 225.429 691.908 225.429 691.908L228.017 672.017L228.62 672.236C228.62 672.236 228.62 672.122 228.579 671.927L229.393 672.236C229.393 672.236 227.765 662.397 233.771 656.895C239.778 651.393 253.695 595.52 252.491 586.901C252.491 586.901 263.185 560.507 276.573 539.461L292.33 579.43L309.861 609.332C309.861 609.332 333.178 660.525 332.43 671.935C327.546 677.844 318.773 687.098 312.254 686.829C312.254 686.829 285.558 691.949 303.887 696.669C322.215 701.39 375.996 683.647 375.996 683.647L370.698 666.368ZM253.98 483.319L254.143 483.23C253.329 484.491 252.425 485.899 251.465 487.438L253.98 483.319Z" fill="url(#paint1_linear)"/>
<path d="M242.415 489.35C241.756 489.814 241.398 490.083 241.398 490.083C241.771 489.89 242.114 489.643 242.415 489.35Z" fill="url(#paint2_linear)"/>
<path d="M243.212 490.131L242.195 490.872C242.569 490.676 242.911 490.427 243.212 490.131Z" fill="url(#paint3_linear)"/>
<path d="M243.212 489.35C242.553 489.814 242.195 490.083 242.195 490.083C242.568 489.89 242.911 489.643 243.212 489.35Z" fill="url(#paint4_linear)"/>
<path d="M334.375 667.508C334.375 667.508 320.392 687.318 311.073 686.927C311.073 686.927 285.029 691.973 302.935 696.637C320.84 701.3 373.245 683.818 373.245 683.818L367.011 663.471L334.375 667.508Z" fill="#333333"/>
<path d="M271.836 530.003L291.638 580.887L308.729 610.406C308.729 610.406 332.234 662.649 330.704 672.749L368.142 666.727C368.142 666.727 339.014 586.714 330.859 575.841C330.859 575.841 322.313 570.787 322.72 562.241L312.237 511.398C312.237 511.398 322.435 501.558 316.738 489.228C316.435 488.573 316.098 487.935 315.729 487.316C307.964 474.114 278.445 481.488 278.445 481.488L271.836 530.003Z" fill="#535461"/>
<path opacity="0.03" d="M271.836 530.003L291.638 580.887L308.729 610.406C308.729 610.406 332.234 662.649 330.704 672.749L368.142 666.727C368.142 666.727 339.014 586.714 330.859 575.841C330.859 575.841 322.313 570.787 322.72 562.241L312.237 511.398C312.237 511.398 322.435 501.558 316.738 489.228C316.435 488.573 316.098 487.935 315.729 487.316C307.964 474.114 278.445 481.488 278.445 481.488L271.836 530.003Z" fill="black"/>
<g opacity="0.1">
<path opacity="0.1" d="M330.884 575.841C330.884 575.841 322.338 570.787 322.745 562.241L312.238 511.398C312.238 511.398 322.436 501.558 316.738 489.228C316.436 488.573 316.099 487.935 315.729 487.315C311.961 480.91 303.082 479.348 294.927 479.437C302.748 479.51 310.976 481.22 314.565 487.315C314.935 487.933 315.27 488.572 315.566 489.228C321.264 501.558 311.074 511.398 311.074 511.398L321.557 562.282C321.174 570.827 329.695 575.882 329.695 575.882C337.834 586.755 366.979 666.767 366.979 666.767L330.705 672.546C330.705 672.603 330.705 672.676 330.705 672.733L368.143 666.71C368.143 666.71 339.039 586.714 330.884 575.841Z" fill="black"/>
</g>
<path d="M203.088 658.962C203.088 658.962 187.552 672.163 172.405 672.554C172.405 672.554 145.995 671.74 153.369 677.608C160.742 683.476 226.398 691.973 226.398 691.973L229.32 669.29L203.088 658.962Z" fill="#333333"/>
<g opacity="0.1">
<path opacity="0.1" d="M260.19 478.346C260.19 478.346 234.553 514.466 224.453 550.977C224.453 550.977 215.5 566.514 216.689 582.441L200.37 661.29L230.28 672.546C230.28 672.546 228.726 662.836 234.553 657.399C240.381 651.963 253.972 596.806 252.809 588.26C252.809 588.26 271.455 541.65 290.1 523.394C308.746 505.139 318.016 500.923 320.759 485.142C320.759 485.167 276.891 463.973 260.19 478.346Z" fill="black"/>
</g>
<path d="M259.408 478.346C259.408 478.346 233.771 514.466 223.679 550.977C223.679 550.977 214.727 566.514 215.907 582.441L199.629 661.29L229.498 672.546C229.498 672.546 227.952 662.836 233.771 657.399C239.59 651.963 253.199 596.806 252.027 588.26C252.027 588.26 270.672 541.65 289.318 523.394C307.964 505.139 317.243 500.923 319.985 485.142C319.985 485.167 276.109 463.973 259.408 478.346Z" fill="#535461"/>
<g opacity="0.1">
<path opacity="0.1" d="M275.971 472.967C295.227 473.194 319.204 484.784 319.204 484.784C316.461 500.541 307.183 504.757 288.545 523.036C269.907 541.316 251.253 587.902 251.253 587.902C252.417 596.448 238.825 651.604 232.998 657.041C227.928 661.778 228.449 669.746 228.668 671.732L229.889 672.187C229.889 672.187 228.335 662.478 234.162 657.041C239.989 651.604 253.581 596.448 252.417 587.902C252.417 587.902 271.063 541.292 289.709 523.036C308.355 504.781 317.633 500.565 320.368 484.784C320.368 484.784 295.406 472.722 275.971 472.967Z" fill="black"/>
</g>
<path d="M240.363 422.018C240.363 422.018 221.823 445.108 209.306 450.121C207.93 450.674 206.597 451.326 205.318 452.075C203.579 453.179 201.646 453.942 199.621 454.321C198.122 454.462 196.657 454.846 195.283 455.46C188.772 458.456 173.772 466.562 183.677 473.683C196.105 482.636 212.806 462.028 212.806 462.028C212.806 462.028 219.894 457.585 224.07 456.592C228.245 455.599 247.371 442.219 247.371 442.219L240.363 422.018Z" fill="#A96365"/>
<path d="M243.872 417.363L236.49 423.963L247.363 437.555L243.872 417.363Z" fill="#6C63FF"/>
<g opacity="0.1">
<path opacity="0.1" d="M243.872 417.363L236.49 423.963L247.363 437.555L243.872 417.363Z" fill="black"/>
</g>
<path d="M262.575 340.061C262.575 340.061 244.897 355.215 252.303 359.488L240.364 389.007L244.474 496.984L261.329 469.019L249.813 408.426C249.813 408.426 246.557 372.306 255.982 363.761L265.024 345.855L262.575 340.061Z" fill="#6C63FF"/>
<g opacity="0.1">
<path opacity="0.1" d="M264.911 334.648C264.911 334.648 247.233 349.803 254.631 354.076L242.708 383.619L246.818 491.596L263.674 463.632L252.165 403.014C252.165 403.014 248.91 366.894 258.326 358.348L267.377 340.443L264.911 334.648Z" fill="black"/>
</g>
<path d="M248.926 324.141C248.926 324.141 263.299 341.615 262.909 351.715C262.518 361.816 290.1 334.241 290.1 334.241C290.1 334.241 279.609 321.423 282.328 307.823C285.046 294.223 248.926 324.141 248.926 324.141Z" fill="#A96365"/>
<path d="M330.884 411.926L334.774 443.032V473.715C334.774 473.715 329.337 513.335 346.429 505.953C363.52 498.571 351.051 471.355 351.051 471.355C351.051 471.355 351.051 456.201 353.387 448.436C355.723 440.672 352.223 406.481 352.223 406.481L330.884 411.926Z" fill="#A96365"/>
<path d="M277.663 338.514C277.663 338.514 267.221 348.622 261.744 345.115L254.289 363.647C249.732 374.982 247.664 387.164 248.226 399.368L250.863 469.41L262.517 467.855L266.408 401.435L272.235 361.042L277.663 338.514Z" fill="#F2F2F2"/>
<g opacity="0.1">
<path opacity="0.1" d="M286.405 327.828C286.405 327.828 272.618 337.342 268.736 345.505C268.736 345.505 268.345 354.458 265.236 358.324C262.127 362.19 259.026 381.625 258.245 404.935C257.464 428.244 253.972 459.31 253.972 459.31C253.972 459.31 248.145 489.61 241.935 492.679C241.935 492.679 270.673 470.932 284.655 478.314C298.638 485.696 314.565 503.544 319.229 500.842C319.229 500.842 318.106 466.797 323.2 448.64C323.298 448.298 323.396 447.956 323.502 447.622C328.938 429.758 325.447 405.301 331.64 394.802C331.64 394.802 331.64 375.814 328.059 361.636C327.132 358.016 325.424 354.642 323.055 351.752C320.686 348.861 317.713 346.524 314.345 344.903L297.091 336.569C297.091 336.569 287.96 335.21 286.405 327.828Z" fill="black"/>
</g>
<g opacity="0.1">
<path opacity="0.1" d="M286.405 327.828C286.405 327.828 273.383 338.123 269.509 346.279C269.509 346.279 269.118 355.231 266.018 359.097C262.917 362.963 259.8 382.407 259.026 405.708C258.253 429.009 254.753 460.124 254.753 460.124C254.753 460.124 248.926 490.416 242.708 493.493C242.708 493.493 271.454 471.738 285.437 479.12C299.419 486.501 315.347 504.35 320.002 501.648C320.002 501.648 318.887 467.611 323.982 449.454C324.08 449.104 324.177 448.77 324.275 448.436C329.72 430.531 326.22 406.115 332.414 395.608C332.414 395.608 332.414 376.62 328.824 362.45C327.9 358.829 326.194 355.453 323.826 352.561C321.458 349.669 318.486 347.33 315.119 345.709L297.84 337.342C297.84 337.342 287.96 335.21 286.405 327.828Z" fill="black"/>
</g>
<path d="M286.21 327.633C286.21 327.633 273.391 337.342 269.509 345.538C269.509 345.538 269.118 354.491 266.018 358.357C262.917 362.223 259.8 381.658 259.026 404.967C258.253 428.277 254.753 459.31 254.753 459.31C254.753 459.31 248.926 489.611 242.708 492.679C242.708 492.679 271.454 470.932 285.437 478.314C299.419 485.696 315.347 503.544 320.002 500.842C320.002 500.842 318.887 466.798 323.982 448.64L324.275 447.623C329.72 429.758 326.22 405.301 332.414 394.802C332.414 394.802 332.414 375.814 328.824 361.637C327.9 358.016 326.194 354.642 323.826 351.751C321.458 348.86 318.486 346.523 315.119 344.903L297.84 336.537C297.84 336.537 289.124 334.429 286.21 327.633Z" fill="#6C63FF"/>
<g opacity="0.1">
<path opacity="0.1" d="M321.752 350.356C321.752 350.356 361.176 395.217 355.74 416.581C355.74 416.581 335.539 411.926 330.103 418.136C330.103 418.136 325.83 403.763 313.011 395.608C300.193 387.453 288.383 335.21 321.752 350.356Z" fill="black"/>
</g>
<path d="M321.752 349.583C321.752 349.583 361.176 394.444 355.74 415.809C355.74 415.809 335.539 411.145 330.103 417.363C330.103 417.363 325.83 402.99 313.011 394.835C300.193 386.68 288.383 334.429 321.752 349.583Z" fill="#6C63FF"/>
<g opacity="0.1">
<path opacity="0.1" d="M283.296 316.564C282.685 313.431 283.198 313.195 283.882 309.768C286.6 296.176 250.513 326.046 250.513 326.046C250.513 326.046 252.523 328.487 255.014 332.085C256.853 332.465 258.727 332.656 260.605 332.654C270.477 332.687 278.429 324.353 283.296 316.564Z" fill="black"/>
</g>
<path d="M259.018 330.734C274.246 330.734 286.592 318.388 286.592 303.159C286.592 287.931 274.246 275.585 259.018 275.585C243.789 275.585 231.443 287.931 231.443 303.159C231.443 318.388 243.789 330.734 259.018 330.734Z" fill="#A96365"/>
<g opacity="0.1">
<path opacity="0.1" d="M234.244 295.615C230.174 296.16 225.006 294.801 224.225 290.78C223.24 285.702 230.036 282.389 231.086 277.319C231.485 275.414 231.013 273.429 231.241 271.5C231.696 267.609 234.838 264.614 238.036 262.36C248.169 255.25 260.495 251.965 272.822 253.09C274.36 253.106 275.858 253.579 277.127 254.449C278.47 255.556 278.983 257.338 279.894 258.811C283.044 263.898 290.1 264.508 295.171 267.666C301.104 271.369 304.034 278.637 304.302 285.629C304.571 292.62 302.577 299.465 300.599 306.179C298.923 311.876 297.165 317.736 293.486 322.408C289.807 327.079 283.719 330.351 277.916 328.919C280.57 327.006 278.649 322.579 275.776 321.024C272.903 319.47 269.346 319.201 266.896 317.061C264.447 314.92 263.706 311.404 262.9 308.214C261.891 304.144 260.459 300.075 257.496 297.153C251.758 291.407 241.324 294.663 234.244 295.615Z" fill="black"/>
</g>
<path d="M235.024 295.224C230.955 295.778 225.787 294.41 224.997 290.398C224.013 285.311 230.809 282.007 231.867 276.928C232.257 275.024 231.785 273.046 232.013 271.109C232.469 267.219 235.619 264.232 238.817 261.969C248.948 254.862 261.27 251.578 273.594 252.699C275.133 252.719 276.631 253.195 277.9 254.067C279.242 255.165 279.763 256.948 280.675 258.421C283.816 263.507 290.881 264.118 295.951 267.276C301.876 270.979 304.814 278.255 305.075 285.238C305.335 292.221 303.349 299.074 301.38 305.788C299.695 311.486 297.945 317.354 294.258 322.025C290.572 326.697 284.492 329.961 278.697 328.536C281.342 326.632 279.421 322.196 276.557 320.642C273.692 319.087 270.127 318.827 267.669 316.678C265.211 314.529 264.479 311.022 263.681 307.831C262.672 303.803 261.239 299.692 258.277 296.779C252.507 291.017 242.097 294.272 235.024 295.224Z" fill="#464353"/>
<path d="M275.67 267.235L278.169 254.441C278.192 254.318 278.192 254.191 278.166 254.069C278.141 253.946 278.092 253.83 278.022 253.726C277.951 253.623 277.861 253.534 277.757 253.465C277.652 253.397 277.535 253.349 277.412 253.326L268.606 251.608C268.483 251.584 268.357 251.583 268.235 251.608C268.112 251.632 267.996 251.68 267.892 251.75C267.788 251.82 267.699 251.909 267.63 252.013C267.562 252.118 267.514 252.234 267.491 252.357L264.992 265.143L256.455 296.722L272.105 299.79L275.67 267.235Z" fill="#6C63FF"/>
<g opacity="0.1">
<path opacity="0.1" d="M231.567 277.945C232.141 277.073 232.554 276.106 232.788 275.089C233.178 273.184 232.706 271.198 232.934 269.269C233.02 268.582 233.186 267.907 233.431 267.259C232.678 268.421 232.194 269.736 232.015 271.109C231.787 273.046 232.259 275.023 231.86 276.928C231.792 277.275 231.694 277.615 231.567 277.945Z" fill="black"/>
<path opacity="0.1" d="M295.179 320.177C291.557 324.784 285.575 328.007 279.878 326.762C279.722 327.485 279.301 328.124 278.698 328.552C284.477 329.96 290.581 326.697 294.259 322.041C295.641 320.257 296.805 318.314 297.726 316.255C296.998 317.637 296.145 318.95 295.179 320.177Z" fill="black"/>
<path opacity="0.1" d="M279.919 326.444C282.092 324.426 280.22 320.307 277.477 318.818C274.604 317.264 271.048 316.995 268.59 314.854C266.132 312.714 265.399 309.198 264.602 305.999C263.593 301.971 262.16 297.861 259.198 294.947C253.427 289.177 243.018 292.432 235.945 293.384C231.876 293.93 226.708 292.571 225.926 288.55C225.741 287.6 225.82 286.618 226.154 285.71C225.663 286.377 225.308 287.134 225.109 287.938C224.911 288.743 224.873 289.578 224.999 290.397C225.812 294.418 230.964 295.777 235.025 295.224C242.098 294.272 252.508 291.016 258.278 296.795C261.208 299.733 262.673 303.818 263.682 307.847C264.496 311.037 265.188 314.529 267.67 316.694C270.152 318.859 273.685 319.135 276.558 320.657C278.617 321.764 280.171 324.369 279.919 326.444Z" fill="black"/>
</g>
<g opacity="0.1">
<path opacity="0.1" d="M262.714 317.337C270.22 317.337 276.305 311.252 276.305 303.745C276.305 296.239 270.22 290.154 262.714 290.154C255.207 290.154 249.122 296.239 249.122 303.745C249.122 311.252 255.207 317.337 262.714 317.337Z" fill="black"/>
</g>
<path d="M262.714 317.728C270.22 317.728 276.305 311.643 276.305 304.136C276.305 296.63 270.22 290.544 262.714 290.544C255.207 290.544 249.122 296.63 249.122 304.136C249.122 311.643 255.207 317.728 262.714 317.728Z" fill="#6C63FF"/>
<path d="M262.714 313.04C267.631 313.04 271.617 309.054 271.617 304.136C271.617 299.219 267.631 295.233 262.714 295.233C257.796 295.233 253.81 299.219 253.81 304.136C253.81 309.054 257.796 313.04 262.714 313.04Z" fill="#333333"/>
<path d="M262.713 306.854C264.214 306.854 265.431 305.637 265.431 304.136C265.431 302.635 264.214 301.418 262.713 301.418C261.212 301.418 259.995 302.635 259.995 304.136C259.995 305.637 261.212 306.854 262.713 306.854Z" fill="#6C63FF"/>
<path opacity="0.05" d="M275.898 266.099L265.226 264.015L265.151 264.399L275.823 266.483L275.898 266.099Z" fill="black"/>
<path d="M187.149 449.966L184.546 451.221C181.979 452.458 180.902 455.543 182.139 458.11L191.658 477.853C192.895 480.42 195.98 481.497 198.547 480.26L201.149 479.005C203.716 477.767 204.794 474.683 203.556 472.116L194.038 452.373C192.8 449.806 189.716 448.728 187.149 449.966Z" fill="#CBDAE3"/>
<path d="M190.734 448.238L180.961 452.949C180.374 453.232 180.128 453.938 180.411 454.525L193.386 481.437C193.669 482.025 194.375 482.271 194.962 481.988L204.734 477.276C205.321 476.993 205.568 476.288 205.285 475.701L192.309 448.788C192.026 448.201 191.321 447.954 190.734 448.238Z" fill="#535461"/>
<path d="M191.983 447.638L182.145 452.381C181.481 452.701 181.202 453.499 181.522 454.163L194.363 480.797C194.683 481.461 195.481 481.74 196.145 481.42L205.983 476.676C206.647 476.356 206.926 475.558 206.606 474.894L193.765 448.26C193.445 447.596 192.647 447.317 191.983 447.638Z" fill="#6C63FF"/>
<path d="M192.705 449.877L183.453 454.338L194.081 476.383L203.333 471.922L192.705 449.877Z" fill="#F2F2F2"/>
<path d="M200.74 477.92C201.319 477.641 201.486 476.787 201.113 476.014C200.74 475.241 199.969 474.84 199.39 475.119C198.811 475.398 198.644 476.252 199.016 477.025C199.389 477.798 200.161 478.199 200.74 477.92Z" fill="#F2F2F2"/>
<g opacity="0.1">
<path opacity="0.1" d="M271.617 453.523C277.082 453.585 282.489 454.65 287.569 456.665C295.708 459.969 304.327 456.665 304.327 456.665C304.327 456.665 279.78 449.544 271.617 453.523Z" fill="black"/>
</g>
<path d="M551.778 600.298C551.778 600.298 556.841 606.915 549.443 616.909C542.044 626.904 535.949 635.335 538.415 641.561C538.415 641.561 549.573 623.005 558.656 622.745C567.739 622.484 561.773 611.456 551.778 600.298Z" fill="#6C63FF"/>
<path opacity="0.1" d="M551.778 600.298C552.22 600.937 552.568 601.636 552.811 602.373C561.675 612.783 566.403 622.5 557.882 622.72C549.947 622.948 540.424 637.142 538.145 640.723C538.219 640.999 538.309 641.271 538.414 641.537C538.414 641.537 549.572 622.981 558.655 622.72C567.738 622.46 561.772 611.456 551.778 600.298Z" fill="black"/>
<path d="M561.187 608.73C561.187 611.065 560.926 612.954 560.609 612.954C560.291 612.954 560.023 611.065 560.023 608.73C560.023 606.394 560.348 607.501 560.674 607.501C560.999 607.501 561.187 606.402 561.187 608.73Z" fill="#FFD037"/>
<path d="M564.417 611.505C562.374 612.62 560.592 613.295 560.437 613.01C560.283 612.726 561.813 611.594 563.856 610.479C565.898 609.364 565.101 610.178 565.256 610.479C565.41 610.78 566.46 610.398 564.417 611.505Z" fill="#FFD037"/>
<path d="M525.05 600.298C525.05 600.298 519.988 606.915 527.386 616.909C534.784 626.904 540.88 635.335 538.414 641.561C538.414 641.561 527.256 623.005 518.173 622.745C509.09 622.484 515.056 611.456 525.05 600.298Z" fill="#6C63FF"/>
<path opacity="0.1" d="M525.05 600.298C524.608 600.937 524.26 601.636 524.017 602.373C515.153 612.783 510.433 622.5 518.954 622.72C526.89 622.948 536.404 637.142 538.683 640.723C538.609 640.999 538.519 641.271 538.414 641.537C538.414 641.537 527.256 622.981 518.173 622.72C509.09 622.46 515.056 611.456 525.05 600.298Z" fill="black"/>
<path d="M515.641 608.73C515.641 611.065 515.901 612.954 516.227 612.954C516.553 612.954 516.813 611.065 516.813 608.73C516.813 606.394 516.479 607.501 516.162 607.501C515.844 607.501 515.641 606.402 515.641 608.73Z" fill="#FFD037"/>
<path d="M512.411 611.505C514.462 612.62 516.244 613.295 516.399 613.01C516.553 612.726 515.015 611.594 512.972 610.479C510.929 609.364 511.735 610.178 511.581 610.479C511.426 610.78 510.368 610.398 512.411 611.505Z" fill="#FFD037"/>
<path d="M517.253 640.698C517.253 640.698 531.406 640.259 535.671 637.223C539.936 634.187 557.434 630.566 558.46 635.433C559.485 640.3 579.718 659.654 563.75 659.784C547.782 659.914 526.629 657.293 522.372 654.697C518.116 652.101 517.253 640.698 517.253 640.698Z" fill="#A8A8A8"/>
<path opacity="0.2" d="M564.067 658.083C548.091 658.213 526.946 655.601 522.69 653.004C519.434 651.035 518.157 643.946 517.725 640.682H517.253C517.253 640.682 518.148 652.077 522.405 654.681C526.662 657.285 547.806 659.898 563.783 659.768C568.389 659.727 569.984 658.091 569.895 655.658C569.26 657.139 567.494 658.059 564.067 658.083Z" fill="black"/>
<path d="M489.972 651.084C491.143 650.116 491.994 648.816 492.414 647.356C492.731 645.883 492.096 644.1 490.688 643.571C489.061 642.961 487.433 644.06 486.131 645.199C484.829 646.339 483.372 647.576 481.695 647.34C482.559 646.557 483.205 645.564 483.57 644.457C483.935 643.35 484.007 642.167 483.779 641.024C483.706 640.551 483.506 640.107 483.201 639.738C482.322 638.802 480.759 639.209 479.677 639.95C476.332 642.302 475.396 646.843 475.379 650.937C475.038 649.464 475.322 647.926 475.314 646.412C475.306 644.898 474.891 643.221 473.613 642.408C472.821 641.976 471.927 641.766 471.025 641.797C469.519 641.74 467.843 641.887 466.817 642.994C465.54 644.361 465.873 646.656 466.98 648.154C468.087 649.651 469.78 650.595 471.334 651.645C472.584 652.385 473.647 653.401 474.443 654.616C474.543 654.782 474.622 654.96 474.68 655.145H484.112C486.242 654.064 488.213 652.698 489.972 651.084Z" fill="#6C63FF"/>
<path d="M426.034 645.802C426.034 645.802 416.983 615.094 427.727 592.493C432.285 583.038 433.653 572.36 431.625 562.062C430.625 557.18 429.184 552.4 427.32 547.779" stroke="#535461" stroke-width="2" stroke-miterlimit="10"/>
<path d="M434.067 533.495C434.067 537.255 427.246 548.145 427.246 548.145C427.246 548.145 420.434 537.23 420.434 533.495C420.495 531.728 421.24 530.053 422.512 528.825C423.783 527.597 425.482 526.91 427.25 526.91C429.018 526.91 430.717 527.597 431.989 528.825C433.261 530.053 434.006 531.728 434.067 533.495Z" fill="#6C63FF"/>
<path d="M445.29 554.338C443.239 557.504 431.592 562.957 431.592 562.957C431.592 562.957 431.804 550.09 433.846 546.932C434.829 545.414 436.373 544.349 438.141 543.971C439.908 543.592 441.754 543.931 443.271 544.913C444.789 545.896 445.854 547.44 446.232 549.208C446.611 550.975 446.272 552.821 445.29 554.338Z" fill="#6C63FF"/>
<path d="M444.794 589.962C441.432 591.663 428.622 590.491 428.622 590.491C428.622 590.491 435.296 579.487 438.657 577.794C439.456 577.391 440.327 577.15 441.219 577.083C442.111 577.017 443.008 577.126 443.858 577.406C444.708 577.686 445.494 578.131 446.172 578.715C446.85 579.299 447.406 580.011 447.809 580.81C448.212 581.609 448.454 582.479 448.52 583.371C448.587 584.264 448.477 585.16 448.197 586.01C447.917 586.86 447.472 587.646 446.888 588.324C446.304 589.002 445.593 589.559 444.794 589.962Z" fill="#6C63FF"/>
<path d="M438.356 616.836C435.328 619.074 422.501 620.091 422.501 620.091C422.501 620.091 427.222 608.119 430.25 605.881C431.703 604.802 433.526 604.344 435.317 604.609C437.109 604.874 438.721 605.839 439.8 607.293C440.88 608.747 441.337 610.57 441.072 612.361C440.808 614.152 439.842 615.765 438.388 616.844L438.356 616.836Z" fill="#6C63FF"/>
<path d="M417.284 563.69C419.978 566.31 432.561 569.029 432.561 569.029C432.561 569.029 429.476 556.536 426.782 553.915C426.144 553.279 425.385 552.776 424.551 552.436C423.716 552.095 422.822 551.923 421.921 551.93C421.02 551.938 420.129 552.124 419.3 552.478C418.471 552.832 417.721 553.347 417.092 553.993C416.464 554.639 415.97 555.404 415.639 556.242C415.308 557.081 415.147 557.976 415.165 558.877C415.183 559.779 415.38 560.667 415.743 561.492C416.107 562.316 416.631 563.061 417.284 563.681V563.69Z" fill="#6C63FF"/>
<path d="M410.147 595.227C413.508 596.928 426.319 595.756 426.319 595.756C426.319 595.756 419.645 584.753 416.284 583.06C415.482 582.657 414.609 582.416 413.714 582.35C412.819 582.285 411.92 582.396 411.069 582.678C410.217 582.96 409.429 583.407 408.75 583.993C408.071 584.58 407.514 585.294 407.111 586.096C406.708 586.897 406.467 587.77 406.402 588.665C406.336 589.56 406.447 590.459 406.729 591.311C407.011 592.162 407.458 592.95 408.044 593.629C408.631 594.308 409.345 594.865 410.147 595.268V595.227Z" fill="#6C63FF"/>
<path d="M407.412 626.79C410.44 629.028 423.267 630.045 423.267 630.045C423.267 630.045 418.546 618.073 415.519 615.835C414.799 615.3 413.982 614.913 413.113 614.694C412.244 614.476 411.34 614.431 410.453 614.561C409.567 614.692 408.715 614.996 407.946 615.456C407.177 615.916 406.506 616.523 405.972 617.243C405.437 617.962 405.05 618.78 404.831 619.649C404.613 620.518 404.568 621.421 404.699 622.308C404.829 623.194 405.133 624.046 405.593 624.815C406.053 625.584 406.66 626.255 407.38 626.79H407.412Z" fill="#6C63FF"/>
<path d="M434.067 533.495C434.067 537.255 427.246 548.145 427.246 548.145C427.246 548.145 420.434 537.23 420.434 533.495C420.495 531.728 421.24 530.053 422.512 528.825C423.783 527.597 425.482 526.91 427.25 526.91C429.018 526.91 430.717 527.597 431.989 528.825C433.261 530.053 434.006 531.728 434.067 533.495Z" fill="#6C63FF"/>
<path d="M445.29 554.338C443.239 557.504 431.592 562.957 431.592 562.957C431.592 562.957 431.804 550.09 433.846 546.932C434.829 545.414 436.373 544.349 438.141 543.971C439.908 543.592 441.754 543.931 443.271 544.913C444.789 545.896 445.854 547.44 446.232 549.208C446.611 550.975 446.272 552.821 445.29 554.338Z" fill="#6C63FF"/>
<path d="M444.794 589.962C441.432 591.663 428.622 590.491 428.622 590.491C428.622 590.491 435.296 579.487 438.657 577.794C439.456 577.391 440.327 577.15 441.219 577.083C442.111 577.017 443.008 577.126 443.858 577.406C444.708 577.686 445.494 578.131 446.172 578.715C446.85 579.299 447.406 580.011 447.809 580.81C448.212 581.609 448.454 582.479 448.52 583.371C448.587 584.264 448.477 585.16 448.197 586.01C447.917 586.86 447.472 587.646 446.888 588.324C446.304 589.002 445.593 589.559 444.794 589.962Z" fill="#6C63FF"/>
<path d="M438.356 616.836C435.328 619.074 422.501 620.091 422.501 620.091C422.501 620.091 427.222 608.119 430.25 605.881C431.703 604.802 433.526 604.344 435.317 604.609C437.109 604.874 438.721 605.839 439.8 607.293C440.88 608.747 441.337 610.57 441.072 612.361C440.808 614.152 439.842 615.765 438.388 616.844L438.356 616.836Z" fill="#6C63FF"/>
<path d="M417.284 563.69C419.978 566.31 432.561 569.029 432.561 569.029C432.561 569.029 429.476 556.536 426.782 553.915C426.144 553.279 425.385 552.776 424.551 552.436C423.716 552.095 422.822 551.923 421.921 551.93C421.02 551.938 420.129 552.124 419.3 552.478C418.471 552.832 417.721 553.347 417.092 553.993C416.464 554.639 415.97 555.404 415.639 556.242C415.308 557.081 415.147 557.976 415.165 558.877C415.183 559.779 415.38 560.667 415.743 561.492C416.107 562.316 416.631 563.061 417.284 563.681V563.69Z" fill="#6C63FF"/>
<path d="M410.147 595.227C413.508 596.928 426.319 595.756 426.319 595.756C426.319 595.756 419.645 584.753 416.284 583.06C415.482 582.657 414.609 582.416 413.714 582.35C412.819 582.285 411.92 582.396 411.069 582.678C410.217 582.96 409.429 583.407 408.75 583.993C408.071 584.58 407.514 585.294 407.111 586.096C406.708 586.897 406.467 587.77 406.402 588.665C406.336 589.56 406.447 590.459 406.729 591.311C407.011 592.162 407.458 592.95 408.044 593.629C408.631 594.308 409.345 594.865 410.147 595.268V595.227Z" fill="#6C63FF"/>
<path d="M407.412 626.79C410.44 629.028 423.267 630.045 423.267 630.045C423.267 630.045 418.546 618.073 415.519 615.835C414.799 615.3 413.982 614.913 413.113 614.694C412.244 614.476 411.34 614.431 410.453 614.561C409.567 614.692 408.715 614.996 407.946 615.456C407.177 615.916 406.506 616.523 405.972 617.243C405.437 617.962 405.05 618.78 404.831 619.649C404.613 620.518 404.568 621.421 404.699 622.308C404.829 623.194 405.133 624.046 405.593 624.815C406.053 625.584 406.66 626.255 407.38 626.79H407.412Z" fill="#6C63FF"/>
<path d="M404.653 643.865C404.653 643.865 415.665 641.675 418.603 638.762C421.541 635.848 434.758 630.745 436.223 634.383C437.688 638.021 456.049 650.425 443.548 652.614C431.047 654.803 414.183 655.528 410.513 654.071C406.842 652.614 404.653 643.865 404.653 643.865Z" fill="#A8A8A8"/>
<path opacity="0.2" d="M443.573 651.255C431.088 653.444 414.2 654.169 410.529 652.712C407.729 651.605 405.792 646.266 405.019 643.759L404.653 643.841C404.653 643.841 406.859 652.59 410.529 654.047C414.2 655.503 431.088 654.771 443.573 652.59C447.17 651.955 448.204 650.474 447.813 648.594C447.504 649.847 446.275 650.783 443.573 651.255Z" fill="black"/>
<defs>
<linearGradient id="paint0_linear" x1="725.028" y1="691.973" x2="725.028" y2="267.259" gradientUnits="userSpaceOnUse">
<stop stop-color="#808080" stop-opacity="0.25"/>
<stop offset="0.54" stop-color="#808080" stop-opacity="0.12"/>
<stop offset="1" stop-color="#808080" stop-opacity="0.1"/>
</linearGradient>
<linearGradient id="paint1_linear" x1="48230.3" y1="269466" x2="111435" y2="269466" gradientUnits="userSpaceOnUse">
<stop stop-color="#808080" stop-opacity="0.25"/>
<stop offset="0.54" stop-color="#808080" stop-opacity="0.12"/>
<stop offset="1" stop-color="#808080" stop-opacity="0.1"/>
</linearGradient>
<linearGradient id="paint2_linear" x1="572.31" y1="942.305" x2="573.582" y2="942.305" gradientUnits="userSpaceOnUse">
<stop stop-color="#808080" stop-opacity="0.25"/>
<stop offset="0.54" stop-color="#808080" stop-opacity="0.12"/>
<stop offset="1" stop-color="#808080" stop-opacity="0.1"/>
</linearGradient>
<linearGradient id="paint3_linear" x1="574.104" y1="948.842" x2="575.376" y2="948.842" gradientUnits="userSpaceOnUse">
<stop stop-color="#808080" stop-opacity="0.25"/>
<stop offset="0.54" stop-color="#808080" stop-opacity="0.12"/>
<stop offset="1" stop-color="#808080" stop-opacity="0.1"/>
</linearGradient>
<linearGradient id="paint4_linear" x1="574.104" y1="942.305" x2="575.376" y2="942.305" gradientUnits="userSpaceOnUse">
<stop stop-color="#808080" stop-opacity="0.25"/>
<stop offset="0.54" stop-color="#808080" stop-opacity="0.12"/>
<stop offset="1" stop-color="#808080" stop-opacity="0.1"/>
</linearGradient>
</defs>
</svg>
